<?xml version="1.0" encoding="utf-8"?>
<!-- Generator: Adobe Illustrator 24.0.0, SVG Export Plug-In . SVG Version: 6.00 Build 0)  -->
<svg version="1.1" id="graphic" xmlns="http://www.w3.org/2000/svg" xmlns:xlink="http://www.w3.org/1999/xlink" x="0px" y="0px"
	 viewBox="0 0 1050 640" style="enable-background:new 0 0 1050 640;" xml:space="preserve">
<style type="text/css">
	.st0{fill:none;}
	.st1{fill-opacity:0;}
	.st2{clip-path:url(#SVGID_2_);}
	.st3{fill:none;stroke:#EEEEEE;}
	.st4{fill:#333333;stroke:#EEEEEE;stroke-linecap:square;}
	.st5{fill:#333333;stroke:#EEEEEE;}
	.st6{fill:#333333;}
	.st7{font-family:'ArialMT';}
	.st8{font-size:12.6px;}
	.st9{clip-path:url(#SVGID_4_);fill:#EEEEEE;}
	.st10{clip-path:url(#SVGID_6_);}
	.st11{opacity:0.9;fill:#FBB4AE;enable-background:new    ;}
	.st12{clip-path:url(#SVGID_8_);}
	.st13{opacity:0.9;fill:#99CCCC;enable-background:new    ;}
	.st14{clip-path:url(#SVGID_10_);}
	.st15{clip-path:url(#SVGID_12_);}
	.st16{font-size:15.4266px;}
	.st17{font-family:'Arial-BoldMT';}
	.st18{font-size:16.4688px;}
</style>
<g>
	<g transform="translate(0, 0)">
	</g>
</g>
<g id="areas">
</g>
<g id="lines">
</g>
<g id="lines-secondary">
</g>
<g id="stack-labels">
</g>
<g>
	<g transform="translate(0, 0)">
	</g>
</g>
<g>
	<rect x="49.7" y="98.9" class="st0" width="989.4" height="441.8"/>
	<rect x="49.7" y="98.9" class="st1" width="989.4" height="441.8"/>
</g>
<g>
	<g>
		<defs>
			<rect id="SVGID_1_" x="48.7" y="97.9" width="991.4" height="443.8"/>
		</defs>
		<clipPath id="SVGID_2_">
			<use xlink:href="#SVGID_1_"  style="overflow:visible;"/>
		</clipPath>
		<g class="st2">
			<g>
				<line class="st3" x1="49.7" y1="540.6" x2="1039.1" y2="540.6"/>
				<line class="st3" x1="49.7" y1="485.4" x2="1039.1" y2="485.4"/>
				<line class="st3" x1="49.7" y1="430.2" x2="1039.1" y2="430.2"/>
				<line class="st3" x1="49.7" y1="375" x2="1039.1" y2="375"/>
				<line class="st3" x1="49.7" y1="319.8" x2="1039.1" y2="319.8"/>
				<line class="st3" x1="49.7" y1="264.5" x2="1039.1" y2="264.5"/>
				<line class="st3" x1="49.7" y1="209.3" x2="1039.1" y2="209.3"/>
				<line class="st3" x1="49.7" y1="154.1" x2="1039.1" y2="154.1"/>
				<line class="st3" x1="49.7" y1="98.9" x2="1039.1" y2="98.9"/>
			</g>
		</g>
	</g>
</g>
<g>
	<g>
		<g>
			<line class="st4" x1="49.7" y1="540.6" x2="1039.1" y2="540.6"/>
		</g>
		<g>
			<g transform="translate(847.6043701171875, 449.1481628417969)">
				<line class="st5" x1="10.5" y1="91.5" x2="10.5" y2="98.5"/>
				<text transform="matrix(0.7071 -0.7071 0.7071 0.7071 -1.4518 125.7124)" class="st6 st7 st8">Buin</text>
			</g>
			<g transform="translate(509.76641845703125, 449.1481628417969)">
				<line class="st5" x1="10.5" y1="91.5" x2="10.5" y2="98.5"/>
				<text transform="matrix(0.7071 -0.7071 0.7071 0.7071 -16.2908 140.5518)" class="st6 st7 st8">Cerrillos</text>
			</g>
			<g transform="translate(944.1294555664062, 449.1481628417969)">
				<line class="st5" x1="10.5" y1="91.5" x2="10.5" y2="98.5"/>
				<text transform="matrix(0.7071 -0.7071 0.7071 0.7071 -31.1516 155.4126)" class="st6 st7 st8">Cerro Navia</text>
			</g>
			<g transform="translate(533.897705078125, 449.1481628417969)">
				<line class="st5" x1="10.5" y1="91.5" x2="10.5" y2="98.5"/>
				<text transform="matrix(0.7071 -0.7071 0.7071 0.7071 -8.8779 133.1387)" class="st6 st7 st8">Colina</text>
			</g>
			<g transform="translate(775.2105102539062, 449.1481628417969)">
				<line class="st5" x1="10.5" y1="91.5" x2="10.5" y2="98.5"/>
				<text transform="matrix(0.7071 -0.7071 0.7071 0.7071 -18.2876 142.5484)" class="st6 st7 st8">Conchali</text>
			</g>
			<g transform="translate(799.341796875, 449.1481628417969)">
				<line class="st5" x1="10.5" y1="91.5" x2="10.5" y2="98.5"/>
				<text transform="matrix(0.7071 -0.7071 0.7071 0.7071 -23.247 147.5078)" class="st6 st7 st8">El bosque</text>
			</g>
			<g transform="translate(389.1100158691406, 449.1481628417969)">
				<line class="st5" x1="10.5" y1="91.5" x2="10.5" y2="98.5"/>
				<text transform="matrix(0.7071 -0.7071 0.7071 0.7071 -48.9884 173.249)" class="st6 st7 st8">Estacion Central</text>
			</g>
			<g transform="translate(364.9787292480469, 449.1481628417969)">
				<line class="st5" x1="10.5" y1="91.5" x2="10.5" y2="98.5"/>
				<text transform="matrix(0.7071 -0.7071 0.7071 0.7071 -32.1613 156.4219)" class="st6 st7 st8">Huechuraba</text>
			</g>
			<g transform="translate(582.1602783203125, 449.1481628417969)">
				<line class="st5" x1="10.5" y1="91.5" x2="10.5" y2="98.5"/>
				<text transform="matrix(0.7071 -0.7071 0.7071 0.7071 -42.0797 166.3403)" class="st6 st7 st8">Independencia</text>
			</g>
			<g transform="translate(485.6351318359375, 449.1481628417969)">
				<line class="st5" x1="10.5" y1="91.5" x2="10.5" y2="98.5"/>
				<text transform="matrix(0.7071 -0.7071 0.7071 0.7071 -29.181 153.4419)" class="st6 st7 st8">La Cisterna</text>
			</g>
			<g transform="translate(292.58489990234375, 449.1481628417969)">
				<line class="st5" x1="10.5" y1="91.5" x2="10.5" y2="98.5"/>
				<text transform="matrix(0.7071 -0.7071 0.7071 0.7071 -23.2384 147.499)" class="st6 st7 st8">La Florida</text>
			</g>
			<g transform="translate(437.3725891113281, 449.1481628417969)">
				<line class="st5" x1="10.5" y1="91.5" x2="10.5" y2="98.5"/>
				<text transform="matrix(0.7071 -0.7071 0.7071 0.7071 -22.7468 147.0073)" class="st6 st7 st8">La Granja</text>
			</g>
			<g transform="translate(1016.5233154296875, 449.1481628417969)">
				<line class="st5" x1="10.5" y1="91.5" x2="10.5" y2="98.5"/>
				<text transform="matrix(0.7071 -0.7071 0.7071 0.7071 -25.2352 149.4961)" class="st6 st7 st8">La pintana</text>
			</g>
			<g transform="translate(147.79722595214844, 449.1481628417969)">
				<line class="st5" x1="10.5" y1="91.5" x2="10.5" y2="98.5"/>
				<text transform="matrix(0.7071 -0.7071 0.7071 0.7071 -19.284 143.5444)" class="st6 st7 st8">La Reina</text>
			</g>
			<g transform="translate(461.5038757324219, 449.1481628417969)">
				<line class="st5" x1="10.5" y1="91.5" x2="10.5" y2="98.5"/>
				<text transform="matrix(0.7071 -0.7071 0.7071 0.7071 -10.8615 135.1221)" class="st6 st7 st8">Lampa</text>
			</g>
			<g transform="translate(51.2720947265625, 449.1481628417969)">
				<line class="st5" x1="10.5" y1="91.5" x2="10.5" y2="98.5"/>
				<text transform="matrix(0.7071 -0.7071 0.7071 0.7071 -31.169 155.4297)" class="st6 st7 st8">Las Condes</text>
			</g>
			<g transform="translate(123.66593933105469, 449.1481628417969)">
				<line class="st5" x1="10.5" y1="91.5" x2="10.5" y2="98.5"/>
				<text transform="matrix(0.7071 -0.7071 0.7071 0.7071 -39.0998 163.3604)" class="st6 st7 st8">Lo Barnechea</text>
			</g>
			<g transform="translate(968.2607421875, 449.1481628417969)">
				<line class="st5" x1="10.5" y1="91.5" x2="10.5" y2="98.5"/>
				<text transform="matrix(0.7071 -0.7071 0.7071 0.7071 -23.247 147.5078)" class="st6 st7 st8">Lo Espejo</text>
			</g>
			<g transform="translate(726.9479370117188, 449.1481628417969)">
				<line class="st5" x1="10.5" y1="91.5" x2="10.5" y2="98.5"/>
				<text transform="matrix(0.7071 -0.7071 0.7071 0.7071 -19.7799 144.0405)" class="st6 st7 st8">Lo Prado</text>
			</g>
			<g transform="translate(244.3223419189453, 449.1481628417969)">
				<line class="st5" x1="10.5" y1="91.5" x2="10.5" y2="98.5"/>
				<text transform="matrix(0.7071 -0.7071 0.7071 0.7071 -7.3856 131.6465)" class="st6 st7 st8">Macul</text>
			</g>
			<g transform="translate(268.45361328125, 449.1481628417969)">
				<line class="st5" x1="10.5" y1="91.5" x2="10.5" y2="98.5"/>
				<text transform="matrix(0.7071 -0.7071 0.7071 0.7071 -7.8862 132.1465)" class="st6 st7 st8">Maipu</text>
			</g>
			<g transform="translate(171.92849731445312, 449.1481628417969)">
				<line class="st5" x1="10.5" y1="91.5" x2="10.5" y2="98.5"/>
				<text transform="matrix(0.7071 -0.7071 0.7071 0.7071 -9.874 134.1348)" class="st6 st7 st8">Ñuñoa</text>
			</g>
			<g transform="translate(678.6853637695312, 449.1481628417969)">
				<line class="st5" x1="10.5" y1="91.5" x2="10.5" y2="98.5"/>
				<text transform="matrix(0.7071 -0.7071 0.7071 0.7071 -40.0874 164.3482)" class="st6 st7 st8">Padre hurtado</text>
			</g>
			<g transform="translate(919.9981689453125, 449.1481628417969)">
				<line class="st5" x1="10.5" y1="91.5" x2="10.5" y2="98.5"/>
				<text transform="matrix(0.7071 -0.7071 0.7071 0.7071 -6.4068 130.6675)" class="st6 st7 st8">Paine</text>
			</g>
			<g transform="translate(895.866943359375, 449.1481628417969)">
				<line class="st5" x1="10.5" y1="91.5" x2="10.5" y2="98.5"/>
				<text transform="matrix(0.7071 -0.7071 0.7071 0.7071 -64.841 189.1016)" class="st6 st7 st8">Pedro Aguirre Cerda</text>
			</g>
			<g transform="translate(751.0792236328125, 449.1481628417969)">
				<line class="st5" x1="10.5" y1="91.5" x2="10.5" y2="98.5"/>
				<text transform="matrix(0.7071 -0.7071 0.7071 0.7071 -16.8043 141.065)" class="st6 st7 st8">Peñaflor</text>
			</g>
			<g transform="translate(340.84747314453125, 449.1481628417969)">
				<line class="st5" x1="10.5" y1="91.5" x2="10.5" y2="98.5"/>
				<text transform="matrix(0.7071 -0.7071 0.7071 0.7071 -23.2515 147.5122)" class="st6 st7 st8">Peñalolen</text>
			</g>
			<g transform="translate(99.53466033935547, 449.1481628417969)">
				<line class="st5" x1="10.5" y1="91.5" x2="10.5" y2="98.5"/>
				<text transform="matrix(0.7071 -0.7071 0.7071 0.7071 -30.1728 154.4336)" class="st6 st7 st8">Providencia</text>
			</g>
			<g transform="translate(558.0289916992188, 449.1481628417969)">
				<line class="st5" x1="10.5" y1="91.5" x2="10.5" y2="98.5"/>
				<text transform="matrix(0.7071 -0.7071 0.7071 0.7071 -21.2721 145.5327)" class="st6 st7 st8">Pudahuel</text>
			</g>
			<g transform="translate(702.816650390625, 449.1481628417969)">
				<line class="st5" x1="10.5" y1="91.5" x2="10.5" y2="98.5"/>
				<text transform="matrix(0.7071 -0.7071 0.7071 0.7071 -29.1943 153.4546)" class="st6 st7 st8">Puente Alto</text>
			</g>
			<g transform="translate(316.7161865234375, 449.1481628417969)">
				<line class="st5" x1="10.5" y1="91.5" x2="10.5" y2="98.5"/>
				<text transform="matrix(0.7071 -0.7071 0.7071 0.7071 -18.775 143.0357)" class="st6 st7 st8">Quilicura</text>
			</g>
			<g transform="translate(630.4228515625, 449.1481628417969)">
				<line class="st5" x1="10.5" y1="91.5" x2="10.5" y2="98.5"/>
				<text transform="matrix(0.7071 -0.7071 0.7071 0.7071 -41.0574 165.3184)" class="st6 st7 st8">Quinta Normal</text>
			</g>
			<g transform="translate(606.2915649414062, 449.1481628417969)">
				<line class="st5" x1="10.5" y1="91.5" x2="10.5" y2="98.5"/>
				<text transform="matrix(0.7071 -0.7071 0.7071 0.7071 -18.7835 143.0444)" class="st6 st7 st8">Recoleta</text>
			</g>
			<g transform="translate(823.4730834960938, 449.1481628417969)">
				<line class="st5" x1="10.5" y1="91.5" x2="10.5" y2="98.5"/>
				<text transform="matrix(0.7071 -0.7071 0.7071 0.7071 -9.3737 133.6343)" class="st6 st7 st8">Renca</text>
			</g>
			<g transform="translate(654.5541381835938, 449.1481628417969)">
				<line class="st5" x1="10.5" y1="91.5" x2="10.5" y2="98.5"/>
				<text transform="matrix(0.7071 -0.7071 0.7071 0.7071 -38.5995 162.8604)" class="st6 st7 st8">San Bernardo</text>
			</g>
			<g transform="translate(413.2413024902344, 449.1481628417969)">
				<line class="st5" x1="10.5" y1="91.5" x2="10.5" y2="98.5"/>
				<text transform="matrix(0.7071 -0.7071 0.7071 0.7071 -33.1573 157.418)" class="st6 st7 st8">San Joaquin</text>
			</g>
			<g transform="translate(196.05978393554688, 449.1481628417969)">
				<line class="st5" x1="10.5" y1="91.5" x2="10.5" y2="98.5"/>
				<text transform="matrix(0.7071 -0.7071 0.7071 0.7071 -28.1936 152.4541)" class="st6 st7 st8">San Miguel</text>
			</g>
			<g transform="translate(992.3920288085938, 449.1481628417969)">
				<line class="st5" x1="10.5" y1="91.5" x2="10.5" y2="98.5"/>
				<text transform="matrix(0.7071 -0.7071 0.7071 0.7071 -30.6689 154.9297)" class="st6 st7 st8">San Ramon</text>
			</g>
			<g transform="translate(220.19105529785156, 449.1481628417969)">
				<line class="st5" x1="10.5" y1="91.5" x2="10.5" y2="98.5"/>
				<text transform="matrix(0.7071 -0.7071 0.7071 0.7071 -18.7924 143.0532)" class="st6 st7 st8">Santiago</text>
			</g>
			<g transform="translate(871.7356567382812, 449.1481628417969)">
				<line class="st5" x1="10.5" y1="91.5" x2="10.5" y2="98.5"/>
				<text transform="matrix(0.7071 -0.7071 0.7071 0.7071 -22.2596 146.52)" class="st6 st7 st8">Talagante</text>
			</g>
			<g transform="translate(75.40337371826172, 449.1481628417969)">
				<line class="st5" x1="10.5" y1="91.5" x2="10.5" y2="98.5"/>
				<text transform="matrix(0.7071 -0.7071 0.7071 0.7071 -16.1429 140.4038)" class="st6 st7 st8">Vitacura</text>
			</g>
		</g>
	</g>
</g>
<g>
	<g>
		<g>
			<line class="st4" x1="49.7" y1="98.9" x2="49.7" y2="540.6"/>
		</g>
		<g>
			<g transform="translate(39.20645523071289, 449.1481628417969)">
				<line class="st5" x1="10.5" y1="91.5" x2="3.5" y2="91.5"/>
				<text transform="matrix(1 0 0 1 -7.0075 95.658)" class="st6 st7 st8">0</text>
			</g>
			<g transform="translate(39.20645523071289, 7.361718654632568)">
				<line class="st5" x1="10.5" y1="91.5" x2="3.5" y2="91.5"/>
				<text transform="matrix(1 0 0 1 -14.015 95.658)" class="st6 st7 st8">80</text>
			</g>
			<g transform="translate(39.20645523071289, 62.585025787353516)">
				<line class="st5" x1="10.5" y1="91.5" x2="3.5" y2="91.5"/>
				<text transform="matrix(1 0 0 1 -14.015 95.658)" class="st6 st7 st8">70</text>
			</g>
			<g transform="translate(39.20645523071289, 117.8083267211914)">
				<line class="st5" x1="10.5" y1="91.5" x2="3.5" y2="91.5"/>
				<text transform="matrix(1 0 0 1 -14.015 95.658)" class="st6 st7 st8">60</text>
			</g>
			<g transform="translate(39.20645523071289, 173.03163146972656)">
				<line class="st5" x1="10.5" y1="91.5" x2="3.5" y2="91.5"/>
				<text transform="matrix(1 0 0 1 -14.015 95.658)" class="st6 st7 st8">50</text>
			</g>
			<g transform="translate(39.20645523071289, 228.25494384765625)">
				<line class="st5" x1="10.5" y1="91.5" x2="3.5" y2="91.5"/>
				<text transform="matrix(1 0 0 1 -14.015 95.658)" class="st6 st7 st8">40</text>
			</g>
			<g transform="translate(39.20645523071289, 283.4782409667969)">
				<line class="st5" x1="10.5" y1="91.5" x2="3.5" y2="91.5"/>
				<text transform="matrix(1 0 0 1 -14.015 95.658)" class="st6 st7 st8">30</text>
			</g>
			<g transform="translate(39.20645523071289, 338.7015380859375)">
				<line class="st5" x1="10.5" y1="91.5" x2="3.5" y2="91.5"/>
				<text transform="matrix(1 0 0 1 -14.015 95.658)" class="st6 st7 st8">20</text>
			</g>
			<g transform="translate(39.20645523071289, 393.92486572265625)">
				<line class="st5" x1="10.5" y1="91.5" x2="3.5" y2="91.5"/>
				<text transform="matrix(1 0 0 1 -14.015 95.658)" class="st6 st7 st8">10</text>
			</g>
		</g>
	</g>
</g>
<g transform="translate(0, 0)">
	<g>
		<g>
			<defs>
				<rect id="SVGID_3_" y="81" width="1049.6" height="554.3"/>
			</defs>
			<clipPath id="SVGID_4_">
				<use xlink:href="#SVGID_3_"  style="overflow:visible;"/>
			</clipPath>
			<path class="st9" d="M49.7,91.5L49.7,91.5L49.7,91.5z"/>
		</g>
	</g>
</g>
<g>
	<defs>
		<rect id="SVGID_5_" y="81" width="1049.6" height="554.3"/>
	</defs>
	<clipPath id="SVGID_6_">
		<use xlink:href="#SVGID_5_"  style="overflow:visible;"/>
	</clipPath>
	<g transform="translate(0,0)" class="st10">
		<path id="point-0-0" class="st11" d="M849.2,342.9h8.2v197.7h-8.2V342.9z"/>
		<path id="point-0-1" class="st11" d="M511.3,290.5h8.2v250.2h-8.2V290.5z"/>
		<path id="point-0-2" class="st11" d="M945.7,340.2h8.2v200.5h-8.2V340.2z"/>
		<path id="point-0-3" class="st11" d="M535.5,324.2h8.2v216.5h-8.2V324.2z"/>
		<path id="point-0-4" class="st11" d="M776.8,317h8.2v223.7h-8.2V317z"/>
		<path id="point-0-5" class="st11" d="M800.9,328.6h8.2v212.1h-8.2V328.6z"/>
		<path id="point-0-6" class="st11" d="M390.7,274.5h8.2v266.2h-8.2V274.5z"/>
		<path id="point-0-7" class="st11" d="M366.6,304.8h8.2v235.8h-8.2V304.8z"/>
		<path id="point-0-8" class="st11" d="M583.7,304.8h8.2v235.8h-8.2V304.8z"/>
		<path id="point-0-9" class="st11" d="M487.2,308.2h8.2v232.5h-8.2V308.2z"/>
		<path id="point-0-10" class="st11" d="M294.2,273.9h8.2v266.7h-8.2V273.9z"/>
		<path id="point-0-11" class="st11" d="M438.9,291.6h8.2v249.1h-8.2V291.6z"/>
		<path id="point-0-12" class="st11" d="M1018.1,368.9h8.2v171.7h-8.2L1018.1,368.9L1018.1,368.9z"/>
		<path id="point-0-13" class="st11" d="M149.4,208.2h8.2v332.4h-8.2V208.2z"/>
		<path id="point-0-14" class="st11" d="M463.1,293.8h8.2v246.8h-8.2V293.8z"/>
		<path id="point-0-15" class="st11" d="M52.8,149.1H61v391.5h-8.2V149.1z"/>
		<path id="point-0-16" class="st11" d="M125.2,190.5h8.2v350.1h-8.2V190.5z"/>
		<path id="point-0-17" class="st11" d="M969.8,324.7h8.2v215.9h-8.2V324.7z"/>
		<path id="point-0-18" class="st11" d="M728.5,308.7h8.2v231.9h-8.2V308.7z"/>
		<path id="point-0-19" class="st11" d="M245.9,263.4h8.2v277.2h-8.2V263.4z"/>
		<path id="point-0-20" class="st11" d="M270,273.4h8.2v267.3H270V273.4z"/>
		<path id="point-0-21" class="st11" d="M173.5,209.9h8.2v330.8h-8.2V209.9z"/>
		<path id="point-0-22" class="st11" d="M680.3,314.2h8.2v226.4h-8.2V314.2z"/>
		<path id="point-0-23" class="st11" d="M921.6,355.7h8.2v185h-8.2V355.7z"/>
		<path id="point-0-24" class="st11" d="M897.4,351.8h8.2v188.9h-8.2V351.8z"/>
		<path id="point-0-25" class="st11" d="M752.7,361.2h8.2v179.5h-8.2V361.2z"/>
		<path id="point-0-26" class="st11" d="M342.4,285.5h8.2v255.1h-8.2V285.5z"/>
		<path id="point-0-27" class="st11" d="M101.1,146.4h8.2v394.3h-8.2V146.4z"/>
		<path id="point-0-28" class="st11" d="M559.6,309.8h8.2v230.8h-8.2V309.8z"/>
		<path id="point-0-29" class="st11" d="M704.4,316.4h8.2v224.2h-8.2V316.4z"/>
		<path id="point-0-30" class="st11" d="M318.3,283.3h8.2v257.3h-8.2V283.3z"/>
		<path id="point-0-31" class="st11" d="M632,293.2h8.2v247.4H632V293.2z"/>
		<path id="point-0-32" class="st11" d="M607.9,323.6h8.2v217h-8.2V323.6z"/>
		<path id="point-0-33" class="st11" d="M825,322h8.2v218.7H825V322z"/>
		<path id="point-0-34" class="st11" d="M656.1,323.6h8.2v217h-8.2V323.6z"/>
		<path id="point-0-35" class="st11" d="M414.8,285.5h8.2v255.1h-8.2V285.5z"/>
		<path id="point-0-36" class="st11" d="M197.6,204.9h8.2v335.8h-8.2V204.9z"/>
		<path id="point-0-37" class="st11" d="M994,337.4h8.2v203.2H994V337.4z"/>
		<path id="point-0-38" class="st11" d="M221.8,217.6h8.2v323.1h-8.2V217.6z"/>
		<path id="point-0-39" class="st11" d="M873.3,365.6h8.2v175.1h-8.2V365.6z"/>
		<path id="point-0-40" class="st11" d="M77,179.5h8.2v361.2H77V179.5z"/>
	</g>
</g>
<g>
	<defs>
		<rect id="SVGID_7_" y="81" width="1049.6" height="554.3"/>
	</defs>
	<clipPath id="SVGID_8_">
		<use xlink:href="#SVGID_7_"  style="overflow:visible;"/>
	</clipPath>
	<g transform="translate(0,0)" class="st12">
		<path id="point-1-0" class="st13" d="M858.8,283.9h8.2v256.8h-8.2V283.9z"/>
		<path id="point-1-1" class="st13" d="M521,276.7h8.2v264H521V276.7z"/>
		<path id="point-1-2" class="st13" d="M955.4,306.5h8.2v234.1h-8.2V306.5z"/>
		<path id="point-1-3" class="st13" d="M545.1,244.1h8.2v296.5h-8.2V244.1z"/>
		<path id="point-1-4" class="st13" d="M786.4,283.9h8.2v256.8h-8.2V283.9z"/>
		<path id="point-1-5" class="st13" d="M810.6,272.8h8.2v267.8h-8.2V272.8z"/>
		<path id="point-1-6" class="st13" d="M400.3,264.5h8.2v276.1h-8.2V264.5z"/>
		<path id="point-1-7" class="st13" d="M376.2,233.1h8.2v307.6h-8.2V233.1z"/>
		<path id="point-1-8" class="st13" d="M593.4,267.3h8.2v273.4h-8.2V267.3z"/>
		<path id="point-1-9" class="st13" d="M496.9,255.7h8.2v285h-8.2V255.7z"/>
		<path id="point-1-10" class="st13" d="M303.8,224.8h8.2v315.9h-8.2V224.8z"/>
		<path id="point-1-11" class="st13" d="M448.6,253.5h8.2v287.2h-8.2V253.5z"/>
		<path id="point-1-12" class="st13" d="M1027.7,330.2h8.2v210.4h-8.2V330.2z"/>
		<path id="point-1-13" class="st13" d="M159,151.3h8.2v389.3H159V151.3z"/>
		<path id="point-1-14" class="st13" d="M472.7,257.9h8.2v282.7h-8.2V257.9z"/>
		<path id="point-1-15" class="st13" d="M62.5,129.2h8.2v411.4h-8.2C62.5,540.6,62.5,129.2,62.5,129.2z"/>
		<path id="point-1-16" class="st13" d="M134.9,159.1h8.2v381.6h-8.2V159.1z"/>
		<path id="point-1-17" class="st13" d="M979.5,326.4h8.2v214.3h-8.2V326.4z"/>
		<path id="point-1-18" class="st13" d="M738.2,281.7h8.2v259h-8.2V281.7z"/>
		<path id="point-1-19" class="st13" d="M255.5,198.8h8.2v341.8h-8.2L255.5,198.8L255.5,198.8z"/>
		<path id="point-1-20" class="st13" d="M279.7,198.8h8.2v341.8h-8.2V198.8z"/>
		<path id="point-1-21" class="st13" d="M183.2,174.5h8.2v366.1h-8.2V174.5z"/>
		<path id="point-1-22" class="st13" d="M689.9,273.4h8.2v267.3h-8.2V273.4z"/>
		<path id="point-1-23" class="st13" d="M931.2,280h8.2v260.7h-8.2V280z"/>
		<path id="point-1-24" class="st13" d="M907.1,277.2h8.2v263.4h-8.2V277.2z"/>
		<path id="point-1-25" class="st13" d="M762.3,236.4h8.2v304.3h-8.2V236.4z"/>
		<path id="point-1-26" class="st13" d="M352.1,240.8h8.2v299.9h-8.2V240.8z"/>
		<path id="point-1-27" class="st13" d="M110.8,160.7h8.2v379.9h-8.2V160.7z"/>
		<path id="point-1-28" class="st13" d="M569.3,258.5h8.2v282.2h-8.2V258.5z"/>
		<path id="point-1-29" class="st13" d="M714,272.3h8.2v268.4H714V272.3z"/>
		<path id="point-1-30" class="st13" d="M327.9,231.9h8.2v308.7h-8.2V231.9z"/>
		<path id="point-1-31" class="st13" d="M641.6,287.2h8.2v253.5h-8.2V287.2z"/>
		<path id="point-1-32" class="st13" d="M617.5,255.7h8.2v285h-8.2V255.7z"/>
		<path id="point-1-33" class="st13" d="M834.7,282.8h8.2v257.9h-8.2V282.8z"/>
		<path id="point-1-34" class="st13" d="M665.8,259h8.2v281.6h-8.2V259z"/>
		<path id="point-1-35" class="st13" d="M424.5,254h8.2v286.6h-8.2V254z"/>
		<path id="point-1-36" class="st13" d="M207.3,217.6h8.2v323.1h-8.2V217.6z"/>
		<path id="point-1-37" class="st13" d="M1003.6,313.7h8.2v227h-8.2V313.7z"/>
		<path id="point-1-38" class="st13" d="M231.4,213.2h8.2v327.5h-8.2V213.2z"/>
		<path id="point-1-39" class="st13" d="M883,261.2h8.2v279.4H883V261.2z"/>
		<path id="point-1-40" class="st13" d="M86.6,123.2h8.2v417.5h-8.2V123.2z"/>
	</g>
</g>
<g>
	<defs>
		<rect id="SVGID_9_" y="81" width="1049.6" height="554.3"/>
	</defs>
	<clipPath id="SVGID_10_">
		<use xlink:href="#SVGID_9_"  style="overflow:visible;"/>
	</clipPath>
	<g transform="translate(0,0)" class="st14">
	</g>
</g>
<g>
	<defs>
		<rect id="SVGID_11_" y="81" width="1049.6" height="554.3"/>
	</defs>
	<clipPath id="SVGID_12_">
		<use xlink:href="#SVGID_11_"  style="overflow:visible;"/>
	</clipPath>
	<g transform="translate(0,0)" class="st15">
	</g>
</g>
<g>
	<line class="st0" x1="4.5" y1="91.5" x2="16.5" y2="91.5"/>
	<path class="st0" d="M10.5,97.5"/>
	<path class="st0" d="M10.5,85.5"/>
</g>
<rect x="109.9" y="43" class="st13" width="18.3" height="18.3"/>
<rect x="25.1" y="43" class="st11" width="18.3" height="18.3"/>
<text transform="matrix(1 0 0 1 49.6562 58.4895)" class="st6 st7 st16">2018</text>
<text transform="matrix(1 0 0 1 136.3203 58.4895)" class="st6 st7 st16">2019</text>
<text transform="matrix(1 0 0 1 25.1069 24.9191)" class="st6 st17 st18">Índice de calidad de vida urbana en la Región Metropolitana. </text>
</svg>
